<svg width="404" height="217" viewBox="0 0 404 217" fill="none" xmlns="http://www.w3.org/2000/svg">
<path d="M296.566 94.1579C290.087 94.1579 284.314 92.7458 279.247 89.9215C274.263 87.0972 270.358 83.1515 267.534 78.0844C264.71 73.0173 263.298 67.2026 263.298 60.6403C263.298 55.5732 264.087 51.0045 265.665 46.9342C267.243 42.7808 269.445 39.1674 272.269 36.0939C275.176 33.0204 278.624 30.653 282.611 28.9916C286.598 27.2472 290.918 26.375 295.569 26.375C299.972 26.375 303.959 27.1641 307.531 28.7424C311.186 30.3207 314.301 32.522 316.876 35.3463C319.534 38.0875 321.528 41.3686 322.857 45.1897C324.186 49.0108 324.767 53.2057 324.601 57.7744L324.477 62.1355H270.275L268.905 54.2856H317.374L315.132 56.4038V53.4134C314.965 50.423 314.093 47.5572 312.515 44.8159C310.937 41.9917 308.694 39.7073 305.787 37.9629C302.962 36.2185 299.557 35.3463 295.569 35.3463C290.918 35.3463 286.889 36.3016 283.483 38.2121C280.077 40.0396 277.461 42.7808 275.633 46.4358C273.806 50.0907 272.892 54.6179 272.892 60.0173C272.892 65.1674 273.889 69.6531 275.882 73.4742C277.876 77.2122 280.7 80.1196 284.355 82.1962C288.093 84.2729 292.579 85.3113 297.812 85.3113C300.886 85.3113 303.918 84.8129 306.908 83.816C309.981 82.7362 313.346 80.6595 317.001 77.586L321.86 84.3145C319.95 86.225 317.665 87.9279 315.007 89.4231C312.349 90.8352 309.442 91.9982 306.285 92.9119C303.128 93.7426 299.889 94.1579 296.566 94.1579Z" fill="black"/>
<path d="M234.926 94.1505C228.779 94.1505 223.297 92.6968 218.479 89.7895C213.661 86.7991 209.84 82.7703 207.015 77.7032C204.274 72.553 202.904 66.7383 202.904 60.2591C202.904 53.7798 204.274 48.0066 207.015 42.9395C209.84 37.7893 213.661 33.7606 218.479 30.8532C223.297 27.9459 228.821 26.4922 235.051 26.4922C240.616 26.4922 245.683 27.6136 250.252 29.8564C254.821 32.0162 258.476 35.0481 261.217 38.9523L255.734 45.6807C254.156 43.6041 252.246 41.7766 250.003 40.1983C247.843 38.62 245.476 37.4155 242.9 36.5849C240.408 35.6711 237.916 35.2143 235.424 35.2143C231.022 35.2143 227.076 36.3357 223.587 38.5785C220.099 40.7382 217.316 43.6871 215.239 47.4252C213.245 51.1632 212.249 55.4411 212.249 60.2591C212.249 65.077 213.245 69.3965 215.239 73.2176C217.316 76.9556 220.099 79.9045 223.587 82.0642C227.076 84.224 230.98 85.3038 235.3 85.3038C237.792 85.3038 240.242 84.93 242.651 84.1824C245.06 83.3518 247.345 82.1888 249.504 80.6936C251.664 79.1984 253.658 77.3294 255.485 75.0866L260.968 81.815C258.143 85.553 254.364 88.5435 249.629 90.7863C244.894 93.0291 239.993 94.1505 234.926 94.1505Z" fill="black"/>
<path d="M182.952 92.9141V27.8724H192.298V92.9141H182.952ZM187.563 13.7924C185.237 13.7924 183.451 13.211 182.205 12.048C181.042 10.802 180.46 9.14067 180.46 7.06399C180.46 4.98731 181.083 3.32596 182.329 2.07996C183.575 0.833947 185.32 0.210938 187.563 0.210938C189.806 0.210938 191.55 0.833947 192.796 2.07996C194.042 3.2429 194.665 4.90424 194.665 7.06399C194.665 9.05761 194.042 10.6774 192.796 11.9234C191.55 13.1694 189.806 13.7924 187.563 13.7924Z" fill="black"/>
<path d="M146.037 92.9169V17.7825C146.037 14.5428 146.743 11.677 148.155 9.185C149.568 6.69299 151.561 4.74091 154.136 3.32876C156.794 1.83355 159.868 1.08594 163.357 1.08594C166.015 1.08594 168.382 1.58434 170.459 2.58115C172.619 3.49489 174.405 4.78244 175.817 6.44379L172.577 13.7952C171.248 12.3831 169.794 11.3863 168.216 10.8048C166.721 10.1403 165.267 9.80801 163.855 9.80801C162.028 9.80801 160.491 10.1403 159.245 10.8048C157.999 11.3863 157.044 12.3 156.379 13.546C155.798 14.709 155.507 16.1211 155.507 17.7825V92.9169H151.146C150.232 92.9169 149.36 92.9169 148.529 92.9169C147.699 92.9169 146.868 92.9169 146.037 92.9169ZM134.449 37.0956V28.3736H172.079V37.0956H134.449Z" fill="black"/>
<path d="M104.139 92.9169V17.7825C104.139 14.5428 104.845 11.677 106.257 9.185C107.669 6.69299 109.663 4.74091 112.238 3.32876C114.896 1.83355 117.969 1.08594 121.458 1.08594C124.116 1.08594 126.484 1.58434 128.56 2.58115C130.72 3.49489 132.506 4.78244 133.918 6.44379L130.679 13.7952C129.349 12.3831 127.896 11.3863 126.318 10.8048C124.822 10.1403 123.369 9.80801 121.956 9.80801C120.129 9.80801 118.592 10.1403 117.346 10.8048C116.1 11.3863 115.145 12.3 114.48 13.546C113.899 14.709 113.608 16.1211 113.608 17.7825V92.9169H109.247C108.333 92.9169 107.461 92.9169 106.631 92.9169C105.8 92.9169 104.969 92.9169 104.139 92.9169ZM92.5507 37.0956V28.3736H130.18V37.0956H92.5507Z" fill="black"/>
<path d="M43.771 94.1514C37.624 94.1514 31.9339 93.0715 26.7006 90.9118C21.5505 88.6689 17.0233 85.5539 13.1191 81.5667C9.29803 77.5795 6.30761 72.8862 4.14786 67.4868C2.07118 62.0043 1.03284 56.0235 1.03284 49.5442C1.03284 43.065 2.07118 37.1257 4.14786 31.7263C6.30761 26.2439 9.29803 21.509 13.1191 17.5218C17.0233 13.4515 21.5505 10.3365 26.7006 8.17673C31.9339 5.93391 37.624 4.8125 43.771 4.8125C50.001 4.8125 55.6911 5.93391 60.8413 8.17673C66.0745 10.3365 70.6017 13.4515 74.4228 17.5218C78.327 21.509 81.3174 26.2439 83.3941 31.7263C85.5538 37.1257 86.6337 43.065 86.6337 49.5442C86.6337 55.9404 85.5538 61.8797 83.3941 67.3622C81.3174 72.7616 78.327 77.4964 74.4228 81.5667C70.6017 85.5539 66.0745 88.6689 60.8413 90.9118C55.6911 93.0715 50.001 94.1514 43.771 94.1514ZM43.771 84.5571C48.5058 84.5571 52.8668 83.7264 56.8541 82.0651C60.9244 80.3207 64.4132 77.8702 67.3205 74.7136C70.2279 71.5571 72.4707 67.8606 74.049 63.6242C75.7103 59.3047 76.541 54.6113 76.541 49.5442C76.541 44.3941 75.7103 39.7008 74.049 35.4643C72.4707 31.1448 70.2279 27.4068 67.3205 24.2503C64.4132 21.0937 60.9244 18.6432 56.8541 16.8988C52.8668 15.1544 48.5058 14.2822 43.771 14.2822C39.0361 14.2822 34.6336 15.1544 30.5633 16.8988C26.576 18.6432 23.1287 21.0937 20.2214 24.2503C17.314 27.4068 15.0712 31.1448 13.4929 35.4643C11.9147 39.7008 11.1255 44.3941 11.1255 49.5442C11.1255 54.6113 11.9147 59.3047 13.4929 63.6242C15.0712 67.8606 17.314 71.5571 20.2214 74.7136C23.1287 77.8702 26.576 80.3207 30.5633 82.0651C34.6336 83.7264 39.0361 84.5571 43.771 84.5571Z" fill="black"/>
<path d="M374.3 216.163C366.99 216.163 360.636 214.709 355.236 211.802C349.837 208.811 345.642 204.782 342.652 199.715C339.661 194.565 338.166 188.709 338.166 182.146C338.166 177.079 338.997 172.428 340.658 168.191C342.319 163.955 344.645 160.3 347.636 157.226C350.626 154.07 354.156 151.661 358.227 149.999C362.38 148.255 366.907 147.383 371.808 147.383C376.46 147.383 380.696 148.213 384.518 149.875C388.422 151.536 391.786 153.862 394.61 156.852C397.435 159.843 399.594 163.373 401.09 167.444C402.585 171.514 403.249 175.958 403.083 180.776L402.958 186.134H350.252L347.386 174.92H386.76L384.642 177.287V174.795C384.476 172.718 383.812 170.891 382.649 169.313C381.569 167.651 380.115 166.364 378.288 165.45C376.46 164.536 374.383 164.079 372.057 164.079C368.818 164.079 366.035 164.744 363.709 166.073C361.466 167.319 359.763 169.188 358.601 171.68C357.438 174.089 356.856 177.079 356.856 180.651C356.856 184.306 357.604 187.504 359.099 190.246C360.677 192.904 362.92 194.98 365.827 196.476C368.818 197.971 372.348 198.718 376.418 198.718C379.243 198.718 381.735 198.303 383.895 197.472C386.137 196.642 388.546 195.23 391.121 193.236L400.466 206.444C397.891 208.686 395.15 210.514 392.243 211.926C389.335 213.338 386.345 214.377 383.272 215.041C380.281 215.789 377.291 216.163 374.3 216.163Z" fill="black"/>
<path d="M309.3 214.923V148.759H329.236V214.923H309.3ZM319.268 135.676C315.53 135.676 312.581 134.804 310.422 133.06C308.345 131.232 307.307 128.657 307.307 125.334C307.307 122.344 308.387 119.894 310.546 117.983C312.706 116.072 315.613 115.117 319.268 115.117C323.006 115.117 325.914 116.031 327.99 117.858C330.067 119.603 331.105 122.095 331.105 125.334C331.105 128.408 330.026 130.9 327.866 132.811C325.789 134.721 322.923 135.676 319.268 135.676Z" fill="black"/>
<path d="M256.889 216.294C251.157 216.294 246.049 214.84 241.563 211.933C237.16 208.943 233.672 204.872 231.097 199.722C228.521 194.489 227.234 188.55 227.234 181.904C227.234 175.259 228.521 169.361 231.097 164.211C233.672 158.978 237.202 154.866 241.688 151.875C246.173 148.885 251.323 147.39 257.138 147.39C260.129 147.39 262.994 147.847 265.736 148.76C268.477 149.674 270.969 150.92 273.212 152.498C275.454 154.077 277.282 155.904 278.694 157.981C280.106 159.974 280.937 162.051 281.186 164.211L276.451 165.332V122.719H296.512V214.923H277.946L276.825 199.847L280.812 200.47C280.563 202.546 279.732 204.54 278.32 206.451C276.991 208.361 275.247 210.064 273.087 211.559C270.927 212.971 268.435 214.093 265.611 214.923C262.87 215.837 259.962 216.294 256.889 216.294ZM261.998 199.722C265.071 199.722 267.729 198.975 269.972 197.479C272.215 195.984 273.918 193.907 275.081 191.249C276.327 188.591 276.95 185.476 276.95 181.904C276.95 178.249 276.327 175.093 275.081 172.435C273.918 169.776 272.215 167.7 269.972 166.204C267.729 164.709 265.071 163.962 261.998 163.962C258.924 163.962 256.266 164.709 254.023 166.204C251.863 167.7 250.16 169.776 248.914 172.435C247.668 175.093 247.045 178.249 247.045 181.904C247.045 185.476 247.668 188.591 248.914 191.249C250.16 193.907 251.863 195.984 254.023 197.479C256.266 198.975 258.924 199.722 261.998 199.722Z" fill="black"/>
<path d="M180.555 216.294C174.823 216.294 169.714 214.84 165.229 211.933C160.826 208.943 157.337 204.872 154.762 199.722C152.187 194.489 150.9 188.55 150.9 181.904C150.9 175.259 152.187 169.361 154.762 164.211C157.337 158.978 160.868 154.866 165.353 151.875C169.839 148.885 174.989 147.39 180.804 147.39C183.794 147.39 186.66 147.847 189.401 148.76C192.142 149.674 194.634 150.92 196.877 152.498C199.12 154.077 200.948 155.904 202.36 157.981C203.772 159.974 204.603 162.051 204.852 164.211L200.117 165.332V122.719H220.178V214.923H201.612L200.491 199.847L204.478 200.47C204.229 202.546 203.398 204.54 201.986 206.451C200.657 208.361 198.912 210.064 196.753 211.559C194.593 212.971 192.101 214.093 189.277 214.923C186.535 215.837 183.628 216.294 180.555 216.294ZM185.663 199.722C188.737 199.722 191.395 198.975 193.638 197.479C195.88 195.984 197.583 193.907 198.746 191.249C199.992 188.591 200.615 185.476 200.615 181.904C200.615 178.249 199.992 175.093 198.746 172.435C197.583 169.776 195.88 167.7 193.638 166.204C191.395 164.709 188.737 163.962 185.663 163.962C182.59 163.962 179.932 164.709 177.689 166.204C175.529 167.7 173.826 169.776 172.58 172.435C171.334 175.093 170.711 178.249 170.711 181.904C170.711 185.476 171.334 188.591 172.58 191.249C173.826 193.907 175.529 195.984 177.689 197.479C179.932 198.975 182.59 199.722 185.663 199.722Z" fill="black"/>
<path d="M103.31 216.299C98.4093 216.299 94.2144 215.261 90.7256 213.184C87.3198 211.025 84.6617 207.951 82.7511 203.964C80.9236 199.977 80.0099 195.2 80.0099 189.635V148.766H100.071V186.894C100.071 189.552 100.486 191.836 101.317 193.747C102.147 195.657 103.393 197.152 105.055 198.232C106.716 199.229 108.71 199.727 111.036 199.727C112.78 199.727 114.358 199.437 115.77 198.855C117.266 198.274 118.512 197.485 119.508 196.488C120.588 195.408 121.419 194.203 122 192.874C122.582 191.462 122.873 189.925 122.873 188.264V148.766H142.933V214.929H124.119L123.246 201.347L126.984 199.852C125.988 203.009 124.326 205.833 122 208.325C119.675 210.734 116.892 212.686 113.652 214.181C110.413 215.593 106.965 216.299 103.31 216.299Z" fill="black"/>
<path d="M0.700684 214.932V127.711H39.2024C45.1832 127.711 50.2503 128.583 54.4037 130.328C58.5571 131.989 61.6721 134.439 63.7488 137.679C65.9085 140.836 66.9884 144.657 66.9884 149.142C66.9884 154.126 65.7424 158.321 63.2504 161.727C60.8414 165.133 57.3111 167.417 52.6593 168.58L52.4101 166.213C56.3142 167.043 59.6785 168.497 62.5028 170.574C65.4101 172.65 67.6529 175.225 69.2312 178.299C70.8095 181.289 71.5986 184.695 71.5986 188.516C71.5986 192.919 70.851 196.781 69.3558 200.104C67.8606 203.344 65.7009 206.085 62.8766 208.328C60.0523 210.571 56.7296 212.232 52.9085 213.312C49.1705 214.392 45.0171 214.932 40.4484 214.932H0.700684ZM20.6368 197.238H39.7008C42.0267 197.238 43.9788 196.864 45.557 196.117C47.2184 195.369 48.5059 194.289 49.4197 192.877C50.3334 191.382 50.7903 189.596 50.7903 187.519C50.7903 185.609 50.2919 183.989 49.2951 182.66C48.3813 181.331 47.0522 180.334 45.3078 179.67C43.5634 178.922 41.4867 178.548 39.0778 178.548H20.6368V197.238ZM20.6368 162.724H36.212C38.3717 162.724 40.1992 162.392 41.6944 161.727C43.2727 160.979 44.4356 159.983 45.1832 158.737C46.0139 157.408 46.4292 155.829 46.4292 154.002C46.4292 151.344 45.5155 149.267 43.688 147.772C41.8605 146.193 39.1193 145.404 35.4644 145.404H20.6368V162.724Z" fill="black"/>
</svg>
