<svg width="404" height="217" viewBox="0 0 404 217" fill="none" xmlns="http://www.w3.org/2000/svg">
<path d="M296.566 94.3064C290.087 94.3064 284.314 92.8942 279.247 90.0699C274.263 87.2456 270.358 83.2999 267.534 78.2328C264.71 73.1657 263.298 67.351 263.298 60.7887C263.298 55.7216 264.087 51.1529 265.665 47.0826C267.243 42.9292 269.445 39.3158 272.269 36.2423C275.176 33.1688 278.624 30.8014 282.611 29.1401C286.598 27.3956 290.918 26.5234 295.569 26.5234C299.972 26.5234 303.959 27.3126 307.531 28.8909C311.186 30.4691 314.301 32.6704 316.876 35.4947C319.534 38.2359 321.528 41.5171 322.857 45.3382C324.186 49.1593 324.767 53.3542 324.601 57.9229L324.477 62.2839H270.275L268.905 54.4341H317.374L315.132 56.5523V53.5619C314.965 50.5714 314.093 47.7056 312.515 44.9644C310.937 42.1401 308.694 39.8557 305.787 38.1113C302.962 36.3669 299.557 35.4947 295.569 35.4947C290.918 35.4947 286.889 36.45 283.483 38.3605C280.077 40.188 277.461 42.9292 275.633 46.5842C273.806 50.2392 272.892 54.7663 272.892 60.1657C272.892 65.3159 273.889 69.8015 275.882 73.6226C277.876 77.3606 280.7 80.268 284.355 82.3447C288.093 84.4214 292.579 85.4597 297.812 85.4597C300.886 85.4597 303.918 84.9613 306.908 83.9645C309.981 82.8846 313.346 80.8079 317.001 77.7344L321.86 84.4629C319.95 86.3734 317.665 88.0763 315.007 89.5715C312.349 90.9837 309.442 92.1466 306.285 93.0604C303.128 93.891 299.889 94.3064 296.566 94.3064Z" fill="white"/>
<path d="M234.926 94.2989C228.779 94.2989 223.296 92.8453 218.478 89.9379C213.661 86.9475 209.839 82.9187 207.015 77.8516C204.274 72.7015 202.903 66.8867 202.903 60.4075C202.903 53.9282 204.274 48.1551 207.015 43.088C209.839 37.9378 213.661 33.909 218.478 31.0017C223.296 28.0943 228.82 26.6406 235.05 26.6406C240.616 26.6406 245.683 27.762 250.252 30.0049C254.82 32.1646 258.475 35.1966 261.217 39.1007L255.734 45.8292C254.156 43.7525 252.245 41.925 250.002 40.3467C247.843 38.7685 245.475 37.564 242.9 36.7333C240.408 35.8196 237.916 35.3627 235.424 35.3627C231.022 35.3627 227.076 36.4841 223.587 38.7269C220.098 40.8867 217.316 43.8356 215.239 47.5736C213.245 51.3116 212.248 55.5896 212.248 60.4075C212.248 65.2254 213.245 69.5449 215.239 73.366C217.316 77.104 220.098 80.0529 223.587 82.2127C227.076 84.3724 230.98 85.4523 235.3 85.4523C237.792 85.4523 240.242 85.0785 242.651 84.3309C245.06 83.5002 247.344 82.3373 249.504 80.8421C251.664 79.3468 253.657 77.4778 255.485 75.235L260.967 81.9635C258.143 85.7015 254.364 88.6919 249.629 90.9347C244.894 93.1775 239.993 94.2989 234.926 94.2989Z" fill="white"/>
<path d="M182.952 93.0625V28.0208H192.297V93.0625H182.952ZM187.562 13.9409C185.237 13.9409 183.451 13.3594 182.205 12.1965C181.042 10.9505 180.46 9.28911 180.46 7.21243C180.46 5.13575 181.083 3.4744 182.329 2.22839C183.575 0.982384 185.32 0.359375 187.562 0.359375C189.805 0.359375 191.55 0.982384 192.796 2.22839C194.042 3.39133 194.665 5.05268 194.665 7.21243C194.665 9.20605 194.042 10.8259 192.796 12.0719C191.55 13.3179 189.805 13.9409 187.562 13.9409Z" fill="white"/>
<path d="M146.037 93.0653V17.9309C146.037 14.6913 146.743 11.8255 148.155 9.33344C149.567 6.84142 151.561 4.88934 154.136 3.4772C156.794 1.98199 159.868 1.23438 163.357 1.23438C166.015 1.23438 168.382 1.73278 170.459 2.72959C172.619 3.64333 174.405 4.93087 175.817 6.59222L172.577 13.9437C171.248 12.5315 169.794 11.5347 168.216 10.9533C166.721 10.2887 165.267 9.95644 163.855 9.95644C162.028 9.95644 160.491 10.2887 159.245 10.9533C157.999 11.5347 157.044 12.4485 156.379 13.6945C155.798 14.8574 155.507 16.2696 155.507 17.9309V93.0653H151.146C150.232 93.0653 149.36 93.0653 148.529 93.0653C147.698 93.0653 146.868 93.0653 146.037 93.0653ZM134.449 37.2441V28.522H172.079V37.2441H134.449Z" fill="white"/>
<path d="M104.138 93.0653V17.9309C104.138 14.6913 104.844 11.8255 106.257 9.33344C107.669 6.84142 109.662 4.88934 112.237 3.4772C114.896 1.98199 117.969 1.23438 121.458 1.23438C124.116 1.23438 126.484 1.73278 128.56 2.72959C130.72 3.64333 132.506 4.93087 133.918 6.59222L130.678 13.9437C129.349 12.5315 127.896 11.5347 126.317 10.9533C124.822 10.2887 123.369 9.95644 121.956 9.95644C120.129 9.95644 118.592 10.2887 117.346 10.9533C116.1 11.5347 115.145 12.4485 114.48 13.6945C113.899 14.8574 113.608 16.2696 113.608 17.9309V93.0653H109.247C108.333 93.0653 107.461 93.0653 106.63 93.0653C105.8 93.0653 104.969 93.0653 104.138 93.0653ZM92.5505 37.2441V28.522H130.18V37.2441H92.5505Z" fill="white"/>
<path d="M43.7708 94.2998C37.6239 94.2998 31.9338 93.2199 26.7005 91.0602C21.5503 88.8174 17.0232 85.7024 13.119 81.7151C9.29791 77.7279 6.30749 73.0346 4.14774 67.6352C2.07106 62.1528 1.03271 56.1719 1.03271 49.6927C1.03271 43.2134 2.07106 37.2741 4.14774 31.8747C6.30749 26.3923 9.29791 21.6575 13.119 17.6702C17.0232 13.5999 21.5503 10.4849 26.7005 8.32517C31.9338 6.08235 37.6239 4.96094 43.7708 4.96094C50.0009 4.96094 55.691 6.08235 60.8412 8.32517C66.0744 10.4849 70.6016 13.5999 74.4227 17.6702C78.3268 21.6575 81.3173 26.3923 83.394 31.8747C85.5537 37.2741 86.6336 43.2134 86.6336 49.6927C86.6336 56.0889 85.5537 62.0282 83.394 67.5106C81.3173 72.91 78.3268 77.6448 74.4227 81.7151C70.6016 85.7024 66.0744 88.8174 60.8412 91.0602C55.691 93.2199 50.0009 94.2998 43.7708 94.2998ZM43.7708 84.7056C48.5057 84.7056 52.8667 83.8749 56.8539 82.2135C60.9242 80.4691 64.4131 78.0186 67.3204 74.8621C70.2278 71.7055 72.4706 68.009 74.0489 63.7726C75.7102 59.4531 76.5409 54.7598 76.5409 49.6927C76.5409 44.5425 75.7102 39.8492 74.0489 35.6128C72.4706 31.2933 70.2278 27.5552 67.3204 24.3987C64.4131 21.2421 60.9242 18.7916 56.8539 17.0472C52.8667 15.3028 48.5057 14.4306 43.7708 14.4306C39.036 14.4306 34.6334 15.3028 30.5631 17.0472C26.5759 18.7916 23.1286 21.2421 20.2213 24.3987C17.3139 27.5552 15.0711 31.2933 13.4928 35.6128C11.9145 39.8492 11.1254 44.5425 11.1254 49.6927C11.1254 54.7598 11.9145 59.4531 13.4928 63.7726C15.0711 68.009 17.3139 71.7055 20.2213 74.8621C23.1286 78.0186 26.5759 80.4691 30.5631 82.2135C34.6334 83.8749 39.036 84.7056 43.7708 84.7056Z" fill="white"/>
<path d="M374.3 216.311C366.99 216.311 360.636 214.857 355.236 211.95C349.837 208.96 345.642 204.931 342.652 199.864C339.661 194.713 338.166 188.857 338.166 182.295C338.166 177.228 338.997 172.576 340.658 168.34C342.319 164.103 344.645 160.448 347.636 157.375C350.626 154.218 354.156 151.809 358.227 150.148C362.38 148.403 366.907 147.531 371.808 147.531C376.46 147.531 380.696 148.362 384.518 150.023C388.422 151.685 391.786 154.011 394.61 157.001C397.435 159.991 399.594 163.522 401.09 167.592C402.585 171.662 403.249 176.106 403.083 180.924L402.958 186.282H350.252L347.386 175.068H386.76L384.642 177.435V174.943C384.476 172.867 383.812 171.039 382.649 169.461C381.569 167.8 380.115 166.512 378.288 165.598C376.46 164.685 374.383 164.228 372.057 164.228C368.818 164.228 366.035 164.892 363.709 166.221C361.466 167.467 359.763 169.336 358.601 171.828C357.438 174.237 356.856 177.228 356.856 180.8C356.856 184.455 357.604 187.653 359.099 190.394C360.677 193.052 362.92 195.129 365.827 196.624C368.818 198.119 372.348 198.867 376.418 198.867C379.243 198.867 381.735 198.452 383.895 197.621C386.137 196.79 388.546 195.378 391.121 193.384L400.466 206.592C397.891 208.835 395.15 210.662 392.243 212.075C389.335 213.487 386.345 214.525 383.272 215.19C380.281 215.937 377.291 216.311 374.3 216.311Z" fill="white"/>
<path d="M309.3 215.071V148.908H329.236V215.071H309.3ZM319.268 135.825C315.53 135.825 312.581 134.953 310.422 133.208C308.345 131.381 307.307 128.806 307.307 125.483C307.307 122.492 308.387 120.042 310.546 118.131C312.706 116.221 315.613 115.266 319.268 115.266C323.006 115.266 325.914 116.179 327.99 118.007C330.067 119.751 331.105 122.243 331.105 125.483C331.105 128.556 330.026 131.048 327.866 132.959C325.789 134.87 322.923 135.825 319.268 135.825Z" fill="white"/>
<path d="M256.889 216.443C251.157 216.443 246.049 214.989 241.563 212.081C237.16 209.091 233.672 205.021 231.097 199.871C228.521 194.637 227.234 188.698 227.234 182.053C227.234 175.407 228.521 169.509 231.097 164.359C233.672 159.126 237.202 155.014 241.688 152.024C246.173 149.033 251.323 147.538 257.138 147.538C260.129 147.538 262.994 147.995 265.736 148.909C268.477 149.823 270.969 151.069 273.212 152.647C275.454 154.225 277.282 156.053 278.694 158.129C280.106 160.123 280.937 162.2 281.186 164.359L276.451 165.481V122.867H296.512V215.072H277.946L276.825 199.995L280.812 200.618C280.563 202.695 279.732 204.688 278.32 206.599C276.991 208.51 275.247 210.212 273.087 211.708C270.927 213.12 268.435 214.241 265.611 215.072C262.87 215.986 259.962 216.443 256.889 216.443ZM261.998 199.871C265.071 199.871 267.729 199.123 269.972 197.628C272.215 196.133 273.918 194.056 275.081 191.398C276.327 188.74 276.95 185.625 276.95 182.053C276.95 178.398 276.327 175.241 275.081 172.583C273.918 169.925 272.215 167.848 269.972 166.353C267.729 164.858 265.071 164.11 261.998 164.11C258.924 164.11 256.266 164.858 254.023 166.353C251.863 167.848 250.16 169.925 248.914 172.583C247.668 175.241 247.045 178.398 247.045 182.053C247.045 185.625 247.668 188.74 248.914 191.398C250.16 194.056 251.863 196.133 254.023 197.628C256.266 199.123 258.924 199.871 261.998 199.871Z" fill="white"/>
<path d="M180.555 216.443C174.823 216.443 169.714 214.989 165.229 212.081C160.826 209.091 157.337 205.021 154.762 199.871C152.187 194.637 150.9 188.698 150.9 182.053C150.9 175.407 152.187 169.509 154.762 164.359C157.337 159.126 160.868 155.014 165.353 152.024C169.839 149.033 174.989 147.538 180.804 147.538C183.794 147.538 186.66 147.995 189.401 148.909C192.143 149.823 194.635 151.069 196.877 152.647C199.12 154.225 200.948 156.053 202.36 158.129C203.772 160.123 204.603 162.2 204.852 164.359L200.117 165.481V122.867H220.178V215.072H201.612L200.491 199.995L204.478 200.618C204.229 202.695 203.398 204.688 201.986 206.599C200.657 208.51 198.913 210.212 196.753 211.708C194.593 213.12 192.101 214.241 189.277 215.072C186.536 215.986 183.628 216.443 180.555 216.443ZM185.663 199.871C188.737 199.871 191.395 199.123 193.638 197.628C195.881 196.133 197.583 194.056 198.746 191.398C199.992 188.74 200.615 185.625 200.615 182.053C200.615 178.398 199.992 175.241 198.746 172.583C197.583 169.925 195.881 167.848 193.638 166.353C191.395 164.858 188.737 164.11 185.663 164.11C182.59 164.11 179.932 164.858 177.689 166.353C175.529 167.848 173.826 169.925 172.58 172.583C171.334 175.241 170.711 178.398 170.711 182.053C170.711 185.625 171.334 188.74 172.58 191.398C173.826 194.056 175.529 196.133 177.689 197.628C179.932 199.123 182.59 199.871 185.663 199.871Z" fill="white"/>
<path d="M103.31 216.448C98.4092 216.448 94.2143 215.409 90.7255 213.333C87.3197 211.173 84.6615 208.1 82.751 204.112C80.9235 200.125 80.0098 195.349 80.0098 189.783V148.914H100.071V187.042C100.071 189.7 100.486 191.984 101.317 193.895C102.147 195.806 103.393 197.301 105.055 198.381C106.716 199.377 108.71 199.876 111.035 199.876C112.78 199.876 114.358 199.585 115.77 199.004C117.265 198.422 118.511 197.633 119.508 196.636C120.588 195.556 121.419 194.352 122 193.023C122.582 191.611 122.872 190.074 122.872 188.413V148.914H142.933V215.077H124.119L123.246 201.496L126.984 200C125.988 203.157 124.326 205.981 122 208.473C119.674 210.882 116.892 212.834 113.652 214.33C110.412 215.742 106.965 216.448 103.31 216.448Z" fill="white"/>
<path d="M0.700684 215.08V127.859H39.2024C45.1832 127.859 50.2503 128.732 54.4037 130.476C58.5571 132.137 61.6721 134.588 63.7488 137.827C65.9085 140.984 66.9884 144.805 66.9884 149.291C66.9884 154.275 65.7424 158.47 63.2504 161.875C60.8414 165.281 57.3111 167.566 52.6593 168.728L52.4101 166.361C56.3142 167.192 59.6785 168.645 62.5028 170.722C65.4101 172.799 67.6529 175.374 69.2312 178.447C70.8095 181.438 71.5986 184.844 71.5986 188.665C71.5986 193.067 70.851 196.93 69.3558 200.253C67.8606 203.492 65.7009 206.233 62.8766 208.476C60.0523 210.719 56.7296 212.38 52.9085 213.46C49.1705 214.54 45.0171 215.08 40.4484 215.08H0.700684ZM20.6368 197.387H39.7008C42.0267 197.387 43.9788 197.013 45.557 196.265C47.2184 195.518 48.5059 194.438 49.4197 193.026C50.3334 191.53 50.7903 189.745 50.7903 187.668C50.7903 185.757 50.2919 184.137 49.2951 182.808C48.3813 181.479 47.0522 180.483 45.3078 179.818C43.5634 179.07 41.4867 178.697 39.0778 178.697H20.6368V197.387ZM20.6368 162.872H36.212C38.3717 162.872 40.1992 162.54 41.6944 161.875C43.2727 161.128 44.4356 160.131 45.1832 158.885C46.0139 157.556 46.4292 155.978 46.4292 154.15C46.4292 151.492 45.5155 149.415 43.688 147.92C41.8605 146.342 39.1193 145.553 35.4644 145.553H20.6368V162.872Z" fill="white"/>
</svg>
